# Blender 5.2.0 LTS
# www.blender.org
mtllib armGoal.mtl
o armGoal
v 134.983627 28.574358 -175.674835
v 97.481674 28.574358 -174.424835
v 130.029633 28.574358 -173.174835
v 140.007629 28.574358 -80.674835
v 170.041672 28.574358 -81.924835
v 167.563675 28.574358 -83.176834
v 102.507675 28.574358 -176.926834
v 172.481674 28.574358 -176.926834
v 167.527679 28.574358 -174.424835
v 200.073669 28.574358 -173.174835
v 200.073669 28.574358 -83.176834
v 174.993668 28.574358 -79.424835
v 105.019669 28.574358 -178.176834
v 70.033676 28.574358 -178.176834
v 165.053680 28.574358 -173.174835
v 209.983673 28.574358 -83.176834
v 209.983673 28.574358 -78.176834
v 140.007629 28.574358 -178.176834
v 97.481674 28.574358 -78.176834
v 134.983627 28.574358 -78.174835
v 102.505676 28.574358 -80.674835
v 135.053635 28.574358 -83.176834
v 102.541672 28.574358 -83.176834
v 105.017670 28.574358 -81.924835
v 209.983673 28.574358 -178.176834
v 174.995667 28.574358 -178.176834
v 172.481674 28.574358 -78.176834
v 70.031677 28.574358 -83.176834
v 70.031677 28.574358 -128.176834
v 65.007675 28.574358 -128.176834
v 59.983677 28.574358 -83.176834
v 59.983677 28.574358 -78.176834
v 209.983673 28.574358 -173.174835
v 205.029663 28.574358 -128.176834
v 209.983673 28.574358 -128.176834
v 59.983677 28.574358 -173.174835
v 59.983677 28.574358 -128.176834
v 70.031677 28.574358 -173.174835
v 95.005676 28.574358 -173.174835
v 200.073669 28.574358 -128.176834
v 59.983677 28.574358 -178.176834
v 102.541672 23.576357 -83.176834
v 102.375671 12.574357 -83.176834
v 102.391678 13.682357 -83.176834
v 109.597672 12.574357 -83.176834
v 135.053635 18.574356 -83.176834
v 167.563675 23.576357 -83.176834
v 167.563675 13.576357 -83.176834
v 134.961639 12.574357 -83.176834
v 200.073669 12.574357 -83.176834
v 167.547668 12.574357 -83.176834
v 174.071671 12.574357 -83.176834
v 69.787674 12.574357 -83.176834
v 94.991669 12.574357 -83.176834
v 160.881668 12.574357 -83.176834
v 130.029633 12.574357 -83.176834
v 165.051666 12.574357 -83.176834
v 95.005676 12.574357 -83.176834
v 105.019669 23.576357 -178.176834
v 140.007629 18.574356 -178.176834
v 174.995667 23.576357 -178.176834
v 209.983673 8.576357 -178.176834
v 174.995667 13.576357 -178.176834
v 70.033676 8.576357 -178.176834
v 174.995667 8.576357 -178.176834
v 105.019669 8.576357 -178.176834
v 105.019669 13.576357 -178.176834
v 140.007629 8.576357 -178.176834
v 59.983677 8.576357 -178.176834
v 174.995667 8.576357 -176.926834
v 134.983627 8.576357 -80.674835
v 167.527679 8.576357 -81.924835
v 172.481674 8.576357 -79.424835
v 170.041672 8.576357 -174.424835
v 167.565674 8.576357 -174.424835
v 140.007629 8.576357 -175.674835
v 174.995667 8.576357 -174.424835
v 200.073669 8.576357 -173.174835
v 165.053680 8.576357 -150.676834
v 165.053680 8.576357 -128.176834
v 130.029633 8.576357 -128.176834
v 100.029678 8.576357 -175.674835
v 102.543671 8.576357 -176.926834
v 130.029633 8.576357 -173.174835
v 105.019669 8.576357 -176.926834
v 135.053635 8.576357 -175.674835
v 165.053680 8.576357 -105.674835
v 97.481674 8.576357 -78.176834
v 97.481674 8.576357 -79.424835
v 134.983627 8.576357 -78.176834
v 95.005676 8.576357 -173.174835
v 95.005676 8.576357 -150.676834
v 59.983677 8.576357 -173.174835
v 165.053680 8.576357 -173.174835
v 200.073669 8.576357 -83.176834
v 165.053680 8.576357 -83.176834
v 200.073669 8.576357 -128.176834
v 209.983673 8.576357 -173.174835
v 172.481674 8.576357 -78.176834
v 209.983673 8.576357 -78.176834
v 130.029633 8.576357 -83.176834
v 95.005676 8.576357 -128.176834
v 95.005676 8.576357 -105.674835
v 59.983677 8.576357 -128.176834
v 95.005676 8.576357 -83.176834
v 59.983677 8.576357 -83.176834
v 97.481674 8.576357 -81.924835
v 59.983677 8.576357 -78.176834
v 205.029663 8.576357 -128.176834
v 209.983673 8.576357 -83.176834
v 209.983673 8.576357 -128.176834
v 134.983627 18.574356 -78.176834
v 172.481674 23.576357 -78.176834
v 172.481674 13.576357 -78.176834
v 97.481674 23.576357 -78.176834
v 97.481674 13.576357 -78.176834
v 59.983677 12.574357 -83.176834
v 59.983677 10.576357 -128.176834
v 59.983677 12.574357 -128.176834
v 59.983677 12.574357 -155.176834
v 59.983677 11.908357 -158.174835
v 59.983677 12.574357 -101.174835
v 59.983677 18.574356 -128.176834
v 59.983677 11.908357 -98.176834
v 59.983677 12.574357 -173.174835
v 165.053680 23.576357 -173.174835
v 130.029633 18.574356 -173.174835
v 165.053680 13.576357 -173.174835
v 87.993668 12.574357 -173.174835
v 95.005676 12.574357 -173.174835
v 95.005676 13.576357 -173.174835
v 69.787674 12.574357 -173.174835
v 69.791672 12.776357 -173.174835
v 130.029633 12.574357 -173.174835
v 165.053680 12.574357 -173.174835
v 172.065674 12.574357 -173.174835
v 200.073669 12.574357 -173.174835
v 95.005676 23.576357 -173.174835
v 70.009674 27.144358 -173.174835
v 190.735672 12.574357 -173.174835
v 165.051666 12.574357 -173.174835
v 158.039673 12.574357 -173.174835
v 102.017670 12.574357 -173.174835
v 95.005676 12.574357 -150.676834
v 69.787674 12.574357 -134.474838
v 95.005676 12.574357 -128.176834
v 95.005676 12.574357 -105.674835
v 130.029633 12.574357 -128.176834
v 165.051666 12.574357 -105.674835
v 200.073669 12.574357 -128.176834
v 165.051666 12.574357 -128.176834
v 165.051666 12.574357 -150.676834
v 69.787674 12.574357 -128.176834
v 200.073669 12.574357 -101.174835
v 200.073669 12.574357 -155.176834
v 69.787674 12.574357 -89.474838
v 69.787674 12.574357 -100.386841
v 69.787674 12.574357 -166.876831
v 69.787674 12.574357 -155.964828
v 69.787674 12.574357 -121.876831
v 209.983673 18.574356 -128.176834
v 200.073669 18.574356 -128.176834
v 69.881683 18.684357 -128.176834
vn -0.0000 1.0000 -0.0000
vn -0.0000 -0.0000 -1.0000
vn -0.0000 0.0079 -1.0000
vn -0.0000 -1.0000 -0.0000
vn -0.0000 -0.0002 1.0000
vn -0.0000 -0.0000 1.0000
vn -0.0001 -0.0000 1.0000
vn 0.0001 -0.0000 1.0000
vn -1.0000 -0.0000 -0.0000
vn 1.0000 -0.0000 -0.0000
vn 0.9999 -0.0154 -0.0000
vn 0.9998 -0.0198 0.0006
vn 0.9999 -0.0152 -0.0000
vn 0.9999 -0.0153 -0.0000
s 0
f 1//1 2//1 3//1
f 4//1 5//1 6//1
f 2//1 1//1 7//1
f 8//1 1//1 9//1
f 9//1 10//1 8//1
f 11//1 5//1 12//1
f 11//1 6//1 5//1
f 13//1 14//1 7//1
f 3//1 15//1 1//1
f 7//1 1//1 13//1
f 16//1 11//1 17//1
f 18//1 13//1 1//1
f 19//1 20//1 21//1
f 22//1 23//1 24//1
f 24//1 4//1 22//1
f 15//1 10//1 9//1
f 7//1 14//1 2//1
f 8//1 25//1 26//1
f 6//1 22//1 4//1
f 27//1 17//1 12//1
f 1//1 8//1 18//1
f 25//1 8//1 10//1
f 24//1 28//1 21//1
f 21//1 20//1 24//1
f 4//1 24//1 20//1
f 21//1 28//1 19//1
f 28//1 24//1 23//1
f 29//1 30//1 28//1
f 12//1 17//1 11//1
f 31//1 28//1 30//1
f 4//1 12//1 5//1
f 32//1 19//1 28//1
f 20//1 27//1 4//1
f 9//1 1//1 15//1
f 12//1 4//1 27//1
f 33//1 10//1 34//1
f 35//1 34//1 16//1
f 26//1 18//1 8//1
f 36//1 2//1 14//1
f 31//1 30//1 37//1
f 2//1 38//1 39//1
f 2//1 36//1 38//1
f 37//1 30//1 36//1
f 11//1 16//1 34//1
f 25//1 10//1 33//1
f 39//1 3//1 2//1
f 33//1 34//1 35//1
f 11//1 34//1 40//1
f 40//1 34//1 10//1
f 38//1 30//1 29//1
f 38//1 36//1 30//1
f 32//1 28//1 31//1
f 36//1 14//1 41//1
f 23//2 42//2 28//2
f 43//2 44//2 45//2
f 44//2 42//2 46//2
f 6//2 47//2 22//2
f 22//2 42//2 23//2
f 47//2 48//2 46//2
f 46//2 22//2 47//2
f 11//2 48//2 47//2
f 46//2 49//2 44//2
f 11//2 50//2 48//2
f 44//2 28//2 42//2
f 11//2 47//2 6//2
f 22//2 46//2 42//2
f 51//2 48//2 52//2
f 52//2 48//2 50//2
f 53//2 44//2 54//2
f 53//2 28//2 44//2
f 49//2 48//2 55//2
f 49//2 46//2 48//2
f 56//2 44//2 49//2
f 45//2 44//2 56//2
f 57//2 48//2 51//2
f 55//2 48//2 57//2
f 58//2 44//2 43//2
f 54//3 44//3 58//3
f 13//2 59//2 14//2
f 18//2 60//2 59//2
f 26//2 61//2 18//2
f 61//2 62//2 63//2
f 64//2 14//2 59//2
f 65//2 63//2 62//2
f 14//2 64//2 41//2
f 60//2 18//2 61//2
f 66//2 67//2 68//2
f 25//2 62//2 61//2
f 64//2 67//2 66//2
f 68//2 60//2 63//2
f 60//2 68//2 67//2
f 61//2 63//2 60//2
f 25//2 61//2 26//2
f 67//2 59//2 60//2
f 18//2 59//2 13//2
f 69//2 41//2 64//2
f 64//2 59//2 67//2
f 68//2 63//2 65//2
f 65//4 70//4 68//4
f 71//4 72//4 73//4
f 74//4 75//4 76//4
f 74//4 77//4 78//4
f 75//4 74//4 78//4
f 70//4 65//4 62//4
f 79//4 80//4 81//4
f 82//4 83//4 84//4
f 83//4 85//4 86//4
f 80//4 87//4 81//4
f 88//4 89//4 90//4
f 91//4 92//4 93//4
f 82//4 91//4 64//4
f 86//4 84//4 83//4
f 83//4 82//4 64//4
f 66//4 85//4 64//4
f 75//4 94//4 86//4
f 76//4 68//4 70//4
f 95//4 72//4 96//4
f 95//4 73//4 72//4
f 94//4 79//4 84//4
f 80//4 79//4 97//4
f 70//4 77//4 76//4
f 85//4 66//4 68//4
f 76//4 86//4 85//4
f 85//4 83//4 64//4
f 77//4 74//4 76//4
f 77//4 70//4 62//4
f 68//4 76//4 85//4
f 62//4 98//4 77//4
f 98//4 78//4 77//4
f 99//4 73//4 100//4
f 97//4 95//4 87//4
f 73//4 95//4 100//4
f 96//4 71//4 101//4
f 94//4 75//4 78//4
f 91//4 82//4 84//4
f 102//4 92//4 81//4
f 78//4 97//4 79//4
f 87//4 96//4 101//4
f 79//4 94//4 78//4
f 93//4 64//4 91//4
f 102//4 103//4 104//4
f 71//4 96//4 72//4
f 105//4 103//4 101//4
f 96//4 87//4 95//4
f 101//4 81//4 87//4
f 81//4 101//4 103//4
f 92//4 102//4 104//4
f 106//4 104//4 103//4
f 106//4 105//4 107//4
f 104//4 93//4 92//4
f 81//4 84//4 79//4
f 84//4 81//4 92//4
f 101//4 107//4 105//4
f 103//4 105//4 106//4
f 89//4 88//4 108//4
f 89//4 107//4 71//4
f 90//4 71//4 73//4
f 95//4 109//4 110//4
f 71//4 90//4 89//4
f 87//4 80//4 97//4
f 98//4 111//4 109//4
f 107//4 89//4 108//4
f 107//4 101//4 71//4
f 108//4 106//4 107//4
f 92//4 91//4 84//4
f 103//4 102//4 81//4
f 86//4 76//4 75//4
f 95//4 97//4 109//4
f 111//4 110//4 109//4
f 97//4 78//4 109//4
f 110//4 100//4 95//4
f 73//4 99//4 90//4
f 84//4 86//4 94//4
f 98//4 109//4 78//4
f 93//4 69//4 64//4
f 112//5 113//5 20//5
f 17//6 27//6 113//6
f 90//6 99//6 114//6
f 20//7 19//7 115//7
f 27//8 20//8 113//8
f 88//6 90//6 116//6
f 19//6 32//6 115//6
f 99//6 100//6 114//6
f 108//6 88//6 116//6
f 90//6 114//6 112//6
f 116//6 115//6 32//6
f 17//6 113//6 114//6
f 113//6 112//6 114//6
f 116//6 112//6 115//6
f 20//5 115//5 112//5
f 108//6 116//6 32//6
f 112//6 116//6 90//6
f 17//6 114//6 100//6
f 117//9 106//9 108//9
f 31//9 117//9 108//9
f 118//9 119//9 120//9
f 118//9 120//9 121//9
f 117//9 31//9 122//9
f 37//9 123//9 31//9
f 118//9 104//9 106//9
f 118//9 121//9 93//9
f 119//9 118//9 122//9
f 124//9 122//9 118//9
f 125//9 120//9 123//9
f 36//9 125//9 123//9
f 108//9 32//9 31//9
f 125//9 121//9 120//9
f 123//9 37//9 36//9
f 106//9 124//9 118//9
f 104//9 118//9 93//9
f 125//9 93//9 121//9
f 106//9 117//9 124//9
f 125//9 36//9 69//9
f 93//9 125//9 69//9
f 123//9 119//9 122//9
f 41//9 69//9 36//9
f 119//9 123//9 120//9
f 122//9 124//9 117//9
f 123//9 122//9 31//9
f 126//6 127//6 128//6
f 129//6 130//6 131//6
f 132//6 129//6 133//6
f 127//6 131//6 134//6
f 135//6 136//6 128//6
f 10//6 126//6 137//6
f 3//6 39//6 138//6
f 10//6 15//6 126//6
f 127//6 126//6 3//6
f 133//6 138//6 139//6
f 126//6 128//6 140//6
f 131//6 133//6 129//6
f 131//6 127//6 138//6
f 15//6 3//6 126//6
f 3//6 138//6 127//6
f 140//6 137//6 126//6
f 136//6 140//6 128//6
f 141//6 135//6 128//6
f 142//6 141//6 128//6
f 134//6 142//6 128//6
f 134//6 128//6 127//6
f 143//6 134//6 131//6
f 130//6 143//6 131//6
f 38//6 139//6 138//6
f 39//6 38//6 138//6
f 133//6 131//6 138//6
f 144//1 145//1 146//1
f 147//1 148//1 146//1
f 146//1 148//1 144//1
f 144//1 143//1 130//1
f 144//1 134//1 143//1
f 149//1 150//1 151//1
f 151//1 148//1 149//1
f 148//1 147//1 56//1
f 152//1 148//1 151//1
f 151//1 150//1 152//1
f 152//1 135//1 141//1
f 152//1 136//1 135//1
f 152//1 140//1 136//1
f 152//1 137//1 140//1
f 141//1 142//1 152//1
f 146//1 153//1 147//1
f 154//1 149//1 50//1
f 150//1 149//1 154//1
f 134//1 152//1 142//1
f 155//1 152//1 150//1
f 137//1 152//1 155//1
f 149//1 55//1 57//1
f 149//1 49//1 55//1
f 149//1 56//1 49//1
f 156//1 147//1 157//1
f 56//1 149//1 148//1
f 134//1 144//1 148//1
f 148//1 152//1 134//1
f 52//1 149//1 51//1
f 50//1 149//1 52//1
f 57//1 51//1 149//1
f 130//1 129//1 144//1
f 45//1 147//1 43//1
f 56//1 147//1 45//1
f 158//1 129//1 132//1
f 158//1 144//1 129//1
f 54//1 156//1 53//1
f 58//1 156//1 54//1
f 147//1 156//1 58//1
f 153//1 146//1 145//1
f 145//1 144//1 159//1
f 158//1 159//1 144//1
f 160//1 147//1 153//1
f 58//1 43//1 147//1
f 160//1 157//1 147//1
f 161//10 33//10 35//10
f 111//10 98//10 161//10
f 16//10 100//10 110//10
f 161//10 110//10 111//10
f 33//10 161//10 98//10
f 98//10 25//10 33//10
f 110//10 161//10 16//10
f 35//10 16//10 161//10
f 25//10 98//10 62//10
f 100//10 16//10 17//10
f 40//9 162//9 11//9
f 162//9 154//9 11//9
f 50//9 11//9 154//9
f 150//9 162//9 155//9
f 162//9 40//9 10//9
f 162//9 150//9 154//9
f 137//9 155//9 162//9
f 10//9 137//9 162//9
f 158//11 163//11 159//11
f 132//11 163//11 158//11
f 133//12 163//12 132//12
f 139//13 163//13 133//13
f 38//11 163//11 139//11
f 53//13 156//13 28//13
f 157//13 28//13 156//13
f 163//14 28//14 157//14
f 163//13 38//13 29//13
f 29//13 28//13 163//13
f 163//11 160//11 153//11
f 163//11 157//11 160//11
f 159//11 163//11 145//11
f 153//11 145//11 163//11
