# Blender 4.4.3
# www.blender.org
o SolidGoal
v -0.053000 0.004249 -0.067000
v 0.097000 0.020249 -0.072000
v 0.087092 0.020249 -0.067000
v -0.053000 0.000249 -0.067000
v 0.087092 0.020249 -0.067000
v 0.087092 0.004249 -0.067000
v 0.087092 0.020249 0.023000
v 0.097000 0.000249 -0.072000
v 0.087092 0.000249 -0.067000
v 0.087092 0.000249 -0.067000
v 0.087092 0.000249 0.023000
v -0.053000 0.004249 0.023000
v 0.097000 0.020249 0.028000
v 0.097000 0.020249 -0.067000
v 0.087092 0.004249 0.023000
v 0.087092 0.020249 0.023000
v 0.097000 0.000249 -0.067000
v -0.053000 0.000249 0.023000
v 0.087092 0.020249 -0.067000
v 0.097000 0.020249 0.023000
v 0.087092 0.000249 0.023000
v 0.097000 0.000249 0.023000
v 0.097000 0.020249 -0.067000
v 0.097000 0.000249 0.028000
v 0.097000 0.020249 0.023000
v 0.087092 0.000249 -0.067000
v -0.053000 0.020249 -0.072000
v 0.087092 0.020249 0.023000
v -0.053000 0.000249 -0.072000
v -0.053000 0.020249 0.028000
v -0.053000 0.000249 0.028000
v 0.087092 0.000249 0.023000
v -0.053000 0.020249 0.023000
v -0.053000 0.020249 -0.067000
v 0.097000 0.072499 -0.067000
v 0.097000 0.072756 0.023000
v 0.087092 0.072756 0.023000
v 0.087092 0.072499 -0.067000
s 0
f 1 12 15 6
f 1 4 18 12
f 4 9 21 18
f 6 15 21 9
f 38 35 23 5
f 37 36 35 38
f 23 25 16 5
f 7 3 14 2 27 34 19 28 33 30 13 20
f 24 13 30 31
f 4 1 34 27 29
f 12 18 31 30 33
f 10 11 22 24 31 18 32 26 4 29 8 17
f 20 13 24 22
f 17 8 2 14
f 29 27 2 8
f 9 4 26 19 34 1 6
f 28 19 26 32
f 21 15 12 33 28 32 18
f 3 7 20 14
f 10 17 22 11
f 22 17 14 20
f 16 37 38 5
f 25 36 37 16
f 23 35 36 25
