# OBJ generated by ONSHAPE BY PTC INC, 1.219 Units = meters
mtllib armGoal.mtl
g Part 1
v -0.0452553 -0.0650089 0.016 
v -0.0452553 -0.0650089 0.005 
v -0.0452553 0.0650967 0.005 
v -0.0452553 0.0650967 0.016 
v 0.0451169 0.0650967 0.016 
v 0.0451169 0.0650967 0.005 
v 0.0451169 -0.0650089 0.016 
v 0.0451169 -0.0650089 0.005 
v -0.0499017 0.0748733 0.016 
v -0.0499017 -0.0751267 0.016 
v 0.0500983 -0.0751267 0.016 
v 0.0500983 0.0748733 0.016 
v -0.0499017 0.0748733 0 
v -0.0499017 -0.0751267 0 
v 0.0500983 -0.0751267 0 
v 0.0500983 0.0748733 0 
vn 1 0 0 
vn 0 -1 0 
vn -1 0 0 
vn 0 1 0 
vn 0 0 1 
vn -1 0 0 
vn 0 -1 0 
vn 1 1.85037e-16 0 
vn 0 1 0 
vn 0 0 -1 
usemtl 0.615686_0.811765_0.929412_0.000000_0.000000
o mesh0
f 1//1 2//1 3//1 
f 3//1 4//1 1//1 
o mesh1
f 5//2 4//2 3//2 
f 3//2 6//2 5//2 
o mesh2
f 7//3 5//3 6//3 
f 6//3 8//3 7//3 
o mesh3
f 1//4 7//4 8//4 
f 8//4 2//4 1//4 
o mesh4
f 8//5 6//5 3//5 
f 3//5 2//5 8//5 
o mesh5
f 9//5 10//5 1//5 
f 10//5 11//5 7//5 
f 7//5 1//5 10//5 
f 12//5 5//5 7//5 
f 9//5 4//5 5//5 
f 7//5 11//5 12//5 
f 1//5 4//5 9//5 
f 5//5 12//5 9//5 
o mesh6
f 9//6 13//6 14//6 
f 14//6 10//6 9//6 
o mesh7
f 10//7 14//7 15//7 
f 15//7 11//7 10//7 
o mesh8
f 11//8 15//8 16//8 
f 16//8 12//8 11//8 
o mesh9
f 12//9 16//9 13//9 
f 13//9 9//9 12//9 
o mesh10
f 15//10 14//10 13//10 
f 13//10 16//10 15//10 
